<?xml version="1.0" encoding="iso-8859-1"?>
<!-- Generator: Adobe Illustrator 19.0.0, SVG Export Plug-In . SVG Version: 6.00 Build 0)  -->
<svg version="1.1" id="Layer_1" xmlns="http://www.w3.org/2000/svg" xmlns:xlink="http://www.w3.org/1999/xlink" x="0px" y="0px"
	 viewBox="0 0 511.999 511.999" style="enable-background:new 0 0 511.999 511.999;" xml:space="preserve">
<g>
	<g>
		<g>
			<path d="M314.861,330.629c-14.727,0-26.707,11.981-26.707,26.706s11.981,26.706,26.707,26.706
				c14.726,0,26.706-11.981,26.706-26.706C341.567,342.609,329.587,330.629,314.861,330.629z M314.861,367.939
				c-5.846,0-10.604-4.757-10.604-10.603c0-5.846,4.758-10.603,10.604-10.603c5.846,0,10.603,4.757,10.603,10.603
				C325.464,363.182,320.709,367.939,314.861,367.939z"/>
			<path d="M401.924,216.287c-13.663-13.663-29.916-23.786-47.65-29.932V79.743c18.363-3.74,32.225-20.015,32.225-39.467
				C386.5,18.068,368.432,0,346.224,0H165.774c-22.209,0-40.277,18.068-40.277,40.276c0,19.452,13.861,35.727,32.225,39.467v106.611
				c-17.734,6.146-33.986,16.269-47.646,29.931c-23.763,23.759-36.849,55.352-36.849,88.958c0,33.603,13.085,65.193,36.846,88.955
				l97.91,97.911c12.82,12.824,29.871,19.888,48.01,19.889h0.004c18.136,0,35.186-7.063,48.012-19.887l97.915-97.912
				c23.763-23.76,36.849-55.352,36.849-88.956S425.686,240.048,401.924,216.287z M141.601,40.276
				c0-13.329,10.845-24.173,24.174-24.173h180.45c13.329,0,24.173,10.844,24.173,24.173c0,10.508-6.74,19.466-16.122,22.79v-22.79
				c0-4.447-3.604-8.051-8.051-8.051h-180.45c-4.448,0-8.051,3.605-8.051,8.051v22.79C148.34,59.742,141.601,50.783,141.601,40.276z
				 M338.172,48.327v133.628c-8.207-1.66-16.64-2.515-25.204-2.515c-6.093,0-12.16,0.444-18.149,1.312V48.327H338.172z
				 M278.714,48.327v135.846c-7.845,2.205-15.462,5.155-22.716,8.841c-7.254-3.685-14.871-6.635-22.716-8.841V48.327H278.714z
				 M217.18,48.327v132.424c-5.989-0.867-12.056-1.312-18.149-1.312c-8.566,0-16.997,0.854-25.205,2.515V48.327H217.18z
				 M390.538,382.812l-97.917,97.913c-9.782,9.783-22.789,15.171-36.623,15.171v8.052l-0.003-8.052
				c-13.838-0.001-26.844-5.388-36.623-15.172l-97.91-97.912c-20.72-20.72-32.131-48.267-32.131-77.569
				c0-29.304,11.412-56.852,32.133-77.571c20.717-20.719,48.265-32.13,77.568-32.13c18.633,0,36.983,4.712,53.065,13.627
				c2.43,1.346,5.378,1.346,7.808,0c16.081-8.916,34.43-13.627,53.065-13.627c29.302,0,56.85,11.411,77.571,32.131
				c20.72,20.72,32.132,48.268,32.132,77.57S411.258,362.093,390.538,382.812z"/>
			<path d="M375.631,242.581c-16.739-16.737-38.992-25.955-62.663-25.955c-21.078,0-41.033,7.31-56.968,20.728
				c-15.937-13.418-35.892-20.728-56.969-20.728c-23.672,0-45.925,9.217-62.66,25.955c-16.739,16.736-25.957,38.991-25.957,62.662
				c0,23.671,9.218,45.926,25.956,62.663l97.911,97.912c5.8,5.801,13.513,8.996,21.716,8.996c8.204,0,15.916-3.195,21.718-8.995
				l97.917-97.915C410.181,333.353,410.181,277.134,375.631,242.581z M364.24,356.518l-97.913,97.914
				c-2.76,2.76-6.428,4.279-10.332,4.279c-3.902,0-7.571-1.52-10.328-4.279l-97.911-97.912
				c-13.697-13.696-21.24-31.906-21.24-51.276c0-19.37,7.543-37.579,21.24-51.275c13.694-13.696,31.904-21.239,51.274-21.239
				c19.37,0,37.58,7.543,51.276,21.239c1.51,1.51,3.558,2.359,5.694,2.359c2.135,0,4.183-0.848,5.694-2.359
				c13.695-13.696,31.905-21.239,51.275-21.239c19.37,0,37.58,7.543,51.276,21.239c13.697,13.696,21.239,31.906,21.239,51.275
				C385.482,324.612,377.939,342.822,364.24,356.518z"/>
			<path d="M325.171,245.954c-23.387,0-42.414,19.027-42.414,42.414c0,23.387,19.027,42.413,42.414,42.413
				c23.387,0,42.413-19.026,42.413-42.413C367.584,264.981,348.558,245.954,325.171,245.954z M325.171,314.679
				c-14.509,0-26.311-11.802-26.311-26.31c0-14.509,11.802-26.311,26.311-26.311c14.508,0,26.31,11.803,26.31,26.311
				C351.481,302.876,339.679,314.679,325.171,314.679z"/>
		</g>
	</g>
</g>
<g>
</g>
<g>
</g>
<g>
</g>
<g>
</g>
<g>
</g>
<g>
</g>
<g>
</g>
<g>
</g>
<g>
</g>
<g>
</g>
<g>
</g>
<g>
</g>
<g>
</g>
<g>
</g>
<g>
</g>
</svg>
