<?xml version="1.0" encoding="UTF-8" standalone="no"?>
<!-- Created with Inkscape (http://www.inkscape.org/) -->

<svg
   xmlns:dc="http://purl.org/dc/elements/1.1/"
   xmlns:cc="http://creativecommons.org/ns#"
   xmlns:rdf="http://www.w3.org/1999/02/22-rdf-syntax-ns#"
   xmlns:svg="http://www.w3.org/2000/svg"
   xmlns="http://www.w3.org/2000/svg"
   xmlns:sodipodi="http://sodipodi.sourceforge.net/DTD/sodipodi-0.dtd"
   xmlns:inkscape="http://www.inkscape.org/namespaces/inkscape"
   width="37.485535mm"
   height="43.875496mm"
   viewBox="0 0 132.82276 155.46435"
   id="svg4399"
   version="1.1"
   inkscape:version="0.91 r13725"
   sodipodi:docname="logo-full.svg">
  <defs
     id="defs4401" />
  <sodipodi:namedview
     id="base"
     pagecolor="#ffffff"
     bordercolor="#666666"
     borderopacity="1.0"
     inkscape:pageopacity="0.0"
     inkscape:pageshadow="2"
     inkscape:zoom="1.979899"
     inkscape:cx="22.981676"
     inkscape:cy="-4.1554058"
     inkscape:document-units="px"
     inkscape:current-layer="layer1"
     showgrid="false"
     fit-margin-top="0"
     fit-margin-left="0"
     fit-margin-right="0"
     fit-margin-bottom="0"
     inkscape:window-width="1920"
     inkscape:window-height="1017"
     inkscape:window-x="-8"
     inkscape:window-y="-8"
     inkscape:window-maximized="1" />
  <metadata
     id="metadata4404">
    <rdf:RDF>
      <cc:Work
         rdf:about="">
        <dc:format>image/svg+xml</dc:format>
        <dc:type
           rdf:resource="http://purl.org/dc/dcmitype/StillImage" />
        <dc:title></dc:title>
      </cc:Work>
    </rdf:RDF>
  </metadata>
  <g
     inkscape:label="Layer 1"
     inkscape:groupmode="layer"
     id="layer1"
     transform="translate(-302.16401,-391.77289)">
    <path
       inkscape:connector-curvature="0"
       style="fill:#ff6e82"
       d="m 383.15901,476.58125 c -0.248,3.563 2.326,3.133 3.002,2.063 2.406,-3.809 7.875,-3.25 9.875,1.375 2.906,6.723 4.557,-4.998 5.074,-5.199 0.521,-0.203 0.996,-0.098 1.412,0.137 0.424,0.236 0.787,0.602 0.967,0.789 0.188,0.178 0.188,0.178 0.17,-0.699 -0.01,-0.881 -0.031,-2.643 -0.039,-3.52 -0.01,-0.883 -0.01,-0.883 -0.01,-0.883 0,0 0,0 -11.414,-0.75 -11.41,-0.744 -34.229,-2.238 -45.638,-2.988 -11.41,-0.748 -11.41,-0.748 -11.41,-0.748 0,0 0,0 0.021,1.025 0.021,1.027 0.063,3.08 0.083,4.105 0.021,1.031 0.021,1.031 0.021,1.031 0,0 0,0 0.269,-0.215 0.268,-0.215 0.805,-0.646 1.298,-0.775 0.495,-0.129 0.942,0.045 1.479,0.471 0.535,0.422 1.153,1.096 1.895,2.492 0.739,1.395 1.603,3.514 2.742,5.396 1.142,1.883 2.558,3.537 4.187,3.717 1.631,0.178 3.474,-1.117 5.052,-2.621 1.579,-1.502 2.892,-3.215 3.966,-3.877 1.075,-0.66 1.913,-0.275 3.051,0.801 1.138,1.07 2.575,2.832 4.386,3.906 1.812,1.076 3.993,1.467 5.956,0.947 1.967,-0.512 3.713,-1.932 5.327,-3.438 1.615,-1.504 3.096,-3.092 4.469,-3.744 1.371,-0.657 2.641,-0.378 3.809,1.202 z"
       id="path13" />
    <path
       inkscape:connector-curvature="0"
       style="fill:#ff6e82"
       d="m 355.70501,487.36025 c -1.121,0.029 -2.463,0.865 -3.001,2.303 -0.535,1.443 -0.268,3.48 0.34,4.745 0.605,1.266 1.55,1.762 2.563,1.598 1.014,-0.16 2.101,-0.973 2.717,-1.955 0.617,-0.983 0.77,-2.132 0.741,-3.017 -0.025,-0.885 -0.23,-1.51 -0.783,-2.213 -0.553,-0.701 -1.455,-1.488 -2.577,-1.461 z"
       id="path15" />
    <path
       inkscape:connector-curvature="0"
       style="fill:#ff6e82"
       d="m 391.75301,443.83525 c 0.938,-1.436 1.844,-1.924 2.723,-1.934 0.881,-0.012 1.736,0.455 2.176,0.709 0.438,0.252 0.457,0.295 0.471,0.318 0.014,0.021 0.014,0.021 0.031,-0.879 0.021,-0.902 0.063,-2.705 0.086,-3.607 0.021,-0.902 0.021,-0.902 0.021,-0.922 0,-0.023 0,-0.066 -9.225,0.609 -9.219,0.678 -27.658,2.074 -36.879,2.77 -9.221,0.699 -9.221,0.699 -9.221,0.699 0,0 0,0 -0.022,0.623 -0.021,0.623 -0.064,1.869 -0.096,2.543 -0.032,0.678 -0.053,0.785 -0.063,0.826 -0.011,0.043 -0.011,0.021 0.257,-0.203 0.268,-0.224 0.806,-0.654 1.386,-0.795 0.579,-0.139 1.201,0.012 1.759,0.645 0.557,0.633 1.052,1.748 1.846,2.846 0.795,1.09 1.889,2.162 3.153,2.494 1.27,0.336 2.707,-0.072 3.944,-1.309 1.235,-1.238 2.271,-3.305 3.199,-4.338 0.93,-1.033 1.753,-1.033 2.687,-0.998 0.932,0.035 1.97,0.105 2.899,1.193 0.928,1.088 1.743,3.191 2.666,5.135 0.923,1.941 1.954,3.725 2.973,4.627 1.021,0.9 2.03,0.922 2.963,0.268 0.935,-0.654 1.794,-1.986 2.523,-3.734 0.729,-1.75 1.334,-3.918 2.35,-5.025 1.021,-1.105 2.457,-1.148 3.645,-0.193 1.176,0.955 2.102,2.91 3.033,4.199 0.934,1.289 1.879,1.908 2.855,1.738 0.975,-0.172 1.986,-1.137 2.973,-2.813 0.986,-1.676 1.953,-4.057 2.887,-5.492 z"
       id="path17" />
    <path
       inkscape:connector-curvature="0"
       style="fill:#ff6e82"
       d="m 368.61001,408.26825 c -27.318,0 -49.463,22.143 -49.463,49.459 0,13.191 5.163,25.174 13.579,34.041 -0.055,-6.176 -0.055,-16.844 -0.055,-22.314 0,-5.773 0,-5.773 0,-5.773 0,0 0,0 1.255,0.109 1.254,0.111 3.764,0.326 5.017,0.434 1.254,0.109 1.254,0.109 1.254,0.109 0,0 0,0 -0.019,-4.227 -0.017,-4.236 -0.051,-12.695 -0.069,-16.924 -0.018,-4.232 -0.018,-4.232 -0.018,-4.232 0,0 0,0 9.859,-0.664 9.862,-0.664 29.585,-1.992 39.445,-2.656 9.861,-0.664 9.861,-0.664 9.861,-0.664 0,0 0,0 0,5.496 0,5.496 0,16.486 0.01,21.98 0.01,5.494 0.033,5.494 0.041,5.494 0.012,0 0.012,0 1.055,0.078 1.039,0.076 3.125,0.227 4.164,0.305 1.039,0.072 1.039,0.072 1.039,0.072 0,0 0,0 0.057,5.396 l 0.162,16.563 c 7.652,-8.707 12.285,-20.121 12.285,-32.623 0,-27.314 -22.141,-49.459 -49.459,-49.459 z m 12.004,27.104 c -5.719,0.391 -17.145,1.129 -23.119,1.523 -5.973,0.393 -6.486,0.438 -6.742,0.461 -0.256,0.023 -0.256,0.023 -0.256,0.023 0,0 0,0 0.188,-0.281 0.184,-0.281 0.556,-0.846 1.327,-1.691 0.772,-0.846 1.946,-1.979 2.532,-2.543 0.588,-0.564 0.588,-0.564 0.588,-0.564 0,0 0,0 -0.104,-0.191 -0.101,-0.191 -0.306,-0.574 -0.816,-1.336 -0.513,-0.766 -1.329,-1.912 -1.739,-2.484 -0.408,-0.572 -0.408,-0.572 -0.408,-0.572 0,0 0,0 0.134,-0.074 0.131,-0.074 0.398,-0.223 1.024,-0.383 0.623,-0.16 1.608,-0.33 2.73,-0.352 1.126,-0.018 2.395,0.115 3.753,0.566 1.36,0.449 2.813,1.219 3.914,1.963 1.104,0.744 1.857,1.461 2.234,1.82 0.375,0.359 0.375,0.359 0.375,0.359 0,0 0,0 -0.051,-0.158 -0.052,-0.158 -0.158,-0.477 -0.466,-0.988 -0.31,-0.516 -0.822,-1.225 -1.443,-2.012 -0.619,-0.785 -1.347,-1.65 -1.71,-2.082 -0.363,-0.434 -0.363,-0.434 -0.363,-0.434 0,0 0,0 0.246,0.105 0.248,0.105 0.741,0.313 1.209,0.605 0.468,0.295 0.91,0.672 1.134,0.861 0.222,0.188 0.222,0.188 0.222,0.188 0,0 0,0 -0.013,-0.18 -0.01,-0.178 -0.033,-0.537 -0.012,-1.016 0.024,-0.48 0.093,-1.086 0.126,-1.389 0.034,-0.299 0.034,-0.299 0.034,-0.299 0,0 0,0 0.213,0.416 0.213,0.418 0.639,1.254 1.104,2.535 0.469,1.283 0.976,3.01 1.229,3.875 0.254,0.863 0.254,0.863 0.254,0.863 0,0 0,0 0.11,-0.521 0.108,-0.521 0.331,-1.566 0.625,-2.766 0.294,-1.2 0.661,-2.553 0.846,-3.232 0.183,-0.676 0.183,-0.676 0.183,-0.676 0,0 0,0 0.073,0.199 0.073,0.201 0.22,0.598 0.258,1.121 0.04,0.527 -0.024,1.178 -0.053,1.504 -0.024,0.324 -0.015,0.322 -0.01,0.322 0.01,0 0.01,0 0.156,-0.188 0.148,-0.189 0.448,-0.568 0.885,-0.939 0.438,-0.369 1.014,-0.73 1.301,-0.91 0.289,-0.182 0.289,-0.182 0.289,-0.182 0,0 0,0 -0.193,0.27 -0.191,0.27 -0.576,0.811 -1.13,1.781 -0.555,0.971 -1.278,2.371 -1.64,3.074 -0.361,0.699 -0.361,0.699 -0.361,0.699 0,0 0,0 0.406,-0.535 0.41,-0.537 1.229,-1.609 2.266,-2.576 1.041,-0.965 2.303,-1.826 3.41,-2.406 1.109,-0.58 2.059,-0.883 3.008,-1.07 0.941,-0.186 1.887,-0.26 2.764,-0.215 0.881,0.045 1.691,0.209 2.098,0.297 0.404,0.086 0.41,0.098 0.41,0.104 0,0.008 0,0.008 -0.061,0.119 -0.059,0.111 -0.176,0.334 -0.559,1.006 -0.381,0.674 -1.025,1.791 -1.35,2.525 -0.326,0.734 -0.326,1.082 -0.082,1.439 0.244,0.354 0.732,0.717 1.367,1.137 0.633,0.42 1.408,0.896 1.99,1.412 0.586,0.514 0.98,1.063 1.18,1.34 0.193,0.271 0.193,0.271 0.193,0.291 0.01,0.018 0.011,0.055 -5.708,0.442 z"
       id="path19" />
    <path
       inkscape:connector-curvature="0"
       style="fill:#ff6e82"
       d="m 384.13501,456.79425 c -0.158,1.174 0.316,2.857 1.051,3.465 0.738,0.605 1.736,0.135 2.309,-0.633 0.576,-0.77 0.729,-1.828 0.775,-2.467 0.049,-0.641 -0.01,-0.855 -0.426,-1.256 -0.418,-0.406 -1.205,-0.996 -1.984,-0.963 -0.787,0.033 -1.564,0.686 -1.725,1.854 z"
       id="path21" />
    <path
       inkscape:connector-curvature="0"
       style="fill:#ff6e82"
       d="m 363.28401,432.11625 c -0.667,-0.604 -1.621,-1.238 -2.508,-1.602 -0.884,-0.361 -1.706,-0.449 -2.392,-0.408 -0.687,0.045 -1.238,0.227 -1.526,0.32 -0.288,0.098 -0.31,0.111 -0.323,0.119 -0.01,0.006 -0.01,0.006 0.233,0.367 0.246,0.363 0.737,1.084 0.98,1.445 0.247,0.363 0.247,0.363 0.247,0.363 0,0 0,0 -0.185,0.125 -0.183,0.125 -0.55,0.377 -0.919,0.797 -0.368,0.42 -0.739,1.006 -0.921,1.299 -0.186,0.295 -0.186,0.295 -0.186,0.295 0,0 0,0 0.382,-0.025 0.384,-0.023 1.146,-0.072 2.622,-0.158 1.475,-0.082 3.659,-0.199 4.759,-0.266 1.098,-0.064 1.107,-0.076 1.113,-0.084 0.01,-0.006 0.01,-0.006 0.017,-0.145 0.01,-0.139 0.024,-0.414 -0.158,-0.84 -0.182,-0.426 -0.567,-0.998 -1.235,-1.602 z"
       id="path23" />
    <path
       inkscape:connector-curvature="0"
       style="fill:#ff6e82"
       d="m 379.61601,432.17125 c -0.418,-0.367 -0.814,-0.57 -1.018,-0.668 -0.195,-0.104 -0.195,-0.104 -0.195,-0.104 0,0 0,0 0.195,-0.391 0.193,-0.391 0.592,-1.172 0.785,-1.561 0.195,-0.391 0.195,-0.391 0.188,-0.396 -0.016,-0.004 -0.041,-0.014 -0.338,-0.072 -0.295,-0.059 -0.863,-0.168 -1.553,-0.123 -0.688,0.045 -1.49,0.24 -2.322,0.715 -0.832,0.473 -1.689,1.225 -2.277,1.908 -0.584,0.684 -0.893,1.303 -1.02,1.75 -0.127,0.445 -0.072,0.717 -0.045,0.854 0.025,0.137 0.025,0.137 0.031,0.143 0.01,0.006 0.02,0.016 1.115,-0.063 1.1,-0.072 3.283,-0.238 4.754,-0.346 1.477,-0.107 2.238,-0.158 2.619,-0.182 0.383,-0.025 0.383,-0.025 0.383,-0.025 0,0 0,0 -0.221,-0.268 -0.222,-0.267 -0.663,-0.802 -1.081,-1.171 z"
       id="path25" />
    <path
       inkscape:connector-curvature="0"
       d="m 431.86601,513.95525 c -0.494,0.821 -3.139,3.398 -4.685,3.398 -0.433,10e-4 -0.713,-0.209 -0.883,-0.659 -0.394,-1.043 -0.459,-2.35 -0.205,-3.725 l 0.421,-0.947 c 0.967,-2.244 2.034,-5.111 1.698,-7.371 -0.05,-0.348 -0.318,-0.861 -0.733,-0.861 -0.232,0 -0.432,0.155 -0.593,0.461 -0.848,1.621 -1.474,4.448 -1.976,6.721 -0.326,1.477 -0.608,2.75 -0.853,3.253 -1.75,3.593 -5.119,7.46 -8.382,7.46 -0.151,0 -0.303,-0.008 -0.456,-0.025 -0.817,-0.09 -1.473,-0.508 -1.948,-1.242 -1.158,-1.789 -0.965,-4.895 -0.47,-6.431 1.483,-4.624 2.362,-7.153 3.068,-9.181 0.787,-0.248 2.166,-0.653 3.39,-1.014 0.857,-0.252 1.653,-0.485 2.156,-0.639 0.191,-0.059 0.338,-0.178 0.425,-0.342 0.089,-0.169 0.105,-0.378 0.044,-0.575 -0.126,-0.396 -0.526,-0.611 -0.908,-0.487 -0.668,0.205 -2.035,0.6 -3.261,0.953 -0.61,0.176 -1.186,0.342 -1.623,0.47 0.093,-0.508 0.195,-0.985 0.293,-1.45 0.343,-1.61 0.614,-2.883 0.161,-3.912 -0.318,-0.72 -0.877,-1.148 -1.497,-1.148 -0.467,0 -0.919,0.248 -1.241,0.68 -0.559,0.747 -1.101,3.719 -1.654,6.961 l -0.016,0.094 c -1.994,0.699 -2.671,0.896 -4.115,1.315 l -0.803,0.234 c 0.538,-2.07 0.737,-2.933 0.836,-3.36 l 0.04,-0.172 c 0.302,-1.27 0.203,-2.232 -0.295,-2.863 -0.39,-0.494 -0.928,-0.641 -1.229,-0.623 -2.106,0.17 -2.429,1.945 -3.135,5.834 -0.132,0.729 -0.28,1.54 -0.455,2.438 -1.831,0.621 -3.439,1.197 -4.913,1.762 -0.271,0.104 -0.419,0.359 -0.368,0.636 0.059,0.323 0.373,0.526 0.704,0.452 1.573,-0.367 3.112,-0.773 4.445,-1.137 -0.067,0.643 -0.225,1.949 -0.415,3.52 -0.166,1.374 -0.359,2.971 -0.543,4.558 -0.266,1.779 -6.619,12.155 -11.422,13.714 -0.507,0.164 -1.018,0.248 -1.517,0.248 -1.481,0 -2.675,-0.732 -3.26,-1.502 0.259,-0.264 1.021,-0.902 1.598,-1.387 0.356,-0.299 0.714,-0.6 1.015,-0.858 1.913,-1.652 3.082,-3.209 3.678,-4.899 0.287,-0.818 0.171,-1.682 -0.317,-2.371 -0.744,-1.047 -2.228,-1.467 -3.655,-0.996 -2.308,0.762 -3.814,3.582 -4.107,4.922 -0.219,0.993 -0.652,3.479 -0.022,5.398 -0.079,0.074 -0.226,0.189 -0.351,0.287 -0.662,0.52 -1.568,1.232 -1.277,1.922 0.071,0.169 0.218,0.266 0.404,0.266 0.353,0 0.818,-0.354 1.438,-0.854 0.132,-0.107 0.3,-0.242 0.393,-0.318 0.155,0.214 0.443,0.594 0.666,0.783 0.534,0.453 1.671,1.211 3.286,1.211 0.825,0 1.649,-0.204 2.451,-0.607 l 0.121,-0.06 c 0.252,-0.124 0.566,-0.279 0.817,-0.46 4.728,-3.446 8.081,-8.756 9.513,-11.023 0.025,-0.039 0.05,-0.08 0.075,-0.119 -0.34,1.912 -0.377,4.105 0.807,5.293 0.542,0.543 1.233,0.83 1.998,0.83 1.566,0 3.36,-1.172 4.682,-3.061 1.219,-1.736 1.685,-3.206 2.108,-4.621 0.141,1.277 0.596,2.422 1.309,3.222 0.674,0.758 1.536,1.171 2.491,1.193 l 0.12,10e-4 c 2.347,0 4.638,-1.773 6.157,-3.107 1.413,-1.242 2.486,-2.492 3.408,-3.982 0.137,0.922 0.443,1.619 0.914,2.082 0.485,0.477 1.083,0.719 1.778,0.719 2.292,0 5.064,-2.676 5.973,-4.174 0.136,-0.227 0.145,-0.479 0.023,-0.693 -0.258,-0.462 -1.028,-0.517 -1.321,-0.035 z m -18.254,-10.632 c 0.143,-0.979 0.358,-2.455 0.756,-3.94 0.237,-0.884 0.479,-0.97 0.492,-0.973 0.047,0.014 0.215,0.235 0.216,0.769 0.01,1.33 -0.751,3.979 -0.932,4.59 -0.146,0.044 -0.393,0.12 -0.628,0.197 0.026,-0.162 0.056,-0.372 0.096,-0.643 z m -0.167,2.345 c 0.112,-0.036 0.203,-0.073 0.293,-0.11 0.054,-0.022 0.106,-0.044 0.164,-0.065 l -0.154,0.538 c -0.392,1.373 -0.476,1.667 -1.041,3.252 0.204,-1.034 0.459,-2.29 0.738,-3.615 z m -28.191,19.068 c 0.023,-0.168 0.589,-4.124 3.493,-4.475 0.071,-0.009 0.138,-0.013 0.202,-0.013 0.349,0 0.599,0.119 0.764,0.364 0.307,0.458 0.284,1.325 -0.057,2.157 -0.1,0.246 -0.942,1.426 -1.253,1.814 -0.989,1.242 -1.995,2.355 -3.229,3.57 -0.225,-1.176 -0.03,-2.604 0.08,-3.417 z m 20.513,-23.663 c 0.112,-0.461 0.297,-0.671 0.374,-0.714 0.035,0.05 0.127,0.237 0.099,0.801 -0.022,0.476 -0.388,2.31 -0.654,3.649 -0.164,0.82 -0.271,1.365 -0.317,1.645 -0.265,0.084 -0.372,0.12 -0.525,0.174 -0.065,0.022 -0.139,0.048 -0.238,0.082 0.221,-1.133 0.877,-4.055 1.261,-5.637 z m -1.451,7.406 c 0.144,-0.043 0.277,-0.082 0.475,-0.134 -0.178,0.732 -0.6,2.365 -0.987,3.831 0.179,-1.654 0.318,-2.654 0.512,-3.697 z m 2.367,15.021 c -0.701,0.619 -1.443,1.001 -2.021,1.022 -0.275,0 -0.694,-0.102 -1.134,-0.582 -1.121,-1.231 0.485,-6.435 1.02,-8.165 0.798,-2.723 1.255,-4.381 1.59,-5.591 0.29,-1.049 0.472,-1.707 0.682,-2.355 1.704,-0.514 2.255,-0.705 3.011,-0.967 0.493,-0.17 1.068,-0.369 2.113,-0.709 -1.064,8.894 -3.023,15.364 -5.261,17.347 z"
       id="path29" />
    <path
       inkscape:connector-curvature="0"
       d="m 368.61401,522.09725 c 0.831,-0.736 1.271,-0.892 1.494,-0.892 0.1,0 0.171,0.032 0.23,0.103 0.145,0.174 0.34,0.721 0.026,2.426 -0.159,0.857 -0.901,5.192 0.096,6.391 0.298,0.357 0.738,0.435 1.239,0.205 1.631,-0.756 4.231,-3.102 5.587,-5.574 0.107,-0.196 0.055,-0.34 0.015,-0.408 -0.168,-0.285 -0.722,-0.188 -0.952,0.16 -1.298,1.967 -3.185,4.002 -4.098,4.003 -0.111,0 -0.196,-0.034 -0.266,-0.104 -0.126,-0.129 -0.273,-0.447 -0.257,-1.228 0.01,-0.434 0.644,-4.81 0.732,-5.181 0.204,-0.839 0.079,-1.604 -0.354,-2.154 -0.42,-0.533 -1.083,-0.82 -1.801,-0.777 -2.438,0.166 -3.816,2.066 -5.155,3.914 -0.438,0.604 -1.441,2.271 -2.243,3.627 0.125,-1.261 0.298,-2.762 0.385,-3.506 0.02,-0.169 0.035,-0.301 0.044,-0.386 0.604,-0.585 4.861,-4.82 4.196,-7.015 -0.192,-0.635 -0.749,-1.025 -1.656,-1.164 -0.136,-0.021 -0.269,-0.031 -0.397,-0.031 -2.494,0 -3.364,3.588 -3.513,4.308 -0.193,0.927 -0.384,2.069 -0.49,2.924 -1.028,2.35 -3.15,3.81 -4.993,4.825 0,-0.248 0,-0.506 0.01,-0.769 0.042,-2.688 0.093,-6.032 -3.58,-6.508 -3.329,-0.42 -6.039,4.94 -6.294,5.679 -0.911,2.646 -0.967,5.327 -0.991,6.472 0,0.176 -0.01,0.356 -0.014,0.439 -2.747,3.339 -4.723,4.962 -6.038,4.962 -0.133,0 -0.262,-0.016 -0.405,-0.049 -0.217,-0.051 -0.378,-0.17 -0.493,-0.365 -0.625,-1.063 0.218,-4.025 0.896,-6.404 0.41,-1.438 0.796,-2.797 0.859,-3.673 0.203,-2.845 -1.361,-3.653 -3.068,-3.962 3.264,-3.382 3.698,-5.279 4.537,-8.943 0.253,-1.109 0.542,-2.365 0.958,-3.88 0.548,-1.996 1.11,-3.487 1.742,-4.612 0.034,0.547 0.192,1.211 1.067,1.57 0.128,0.053 0.266,0.079 0.407,0.079 0.797,0 1.561,-0.831 1.603,-1.742 0.025,-0.543 -0.118,-0.98 -0.424,-1.302 -0.455,-0.477 -1.142,-0.547 -1.51,-0.547 -0.358,0 -0.829,0.072 -1.018,0.229 -1.449,1.22 -1.759,1.854 -3.316,6.786 -0.223,0.703 -0.413,1.365 -0.596,2.002 -0.956,3.324 -1.712,5.953 -5.891,10.197 -1.974,0.109 -3.174,0.461 -4.773,1.018 0.489,-2.62 0.739,-4.637 0.981,-6.59 0.273,-2.203 0.531,-4.285 1.113,-6.819 0.599,-0.549 4.318,-4.135 5.435,-5.805 1.185,-1.776 2.406,-3.883 2.482,-6.046 0.021,-0.565 -0.187,-1.104 -0.584,-1.516 -0.485,-0.504 -1.196,-0.736 -1.841,-0.607 -4.208,0.861 -6.475,8.736 -7.272,12.186 -0.744,0.564 -1.689,1.136 -3.06,1.215 -1.906,0.104 -2.976,-2.596 -3.606,-4.201 l -0.14,-0.355 c -0.303,-0.758 -0.706,-1.366 -1.229,-1.854 0.322,-0.864 0.695,-2.027 1.026,-3.061 0.141,-0.438 0.274,-0.852 0.393,-1.213 0.528,-1.595 0.479,-1.984 0.346,-2.166 -0.133,-0.187 -0.45,-0.157 -0.552,0.031 -0.363,0.686 -1.062,2.679 -1.623,4.279 -0.207,0.592 -0.394,1.123 -0.522,1.473 -0.412,-0.246 -1.197,-0.604 -2.268,-0.604 -1.883,0 -4.831,1.126 -8.175,6.487 -1.138,1.828 -2.786,5.601 -1.744,8.146 0.521,1.271 1.802,2.061 3.344,2.061 1.022,0 2.013,-0.35 2.721,-0.961 2.754,-2.381 5.351,-9.109 6.177,-11.994 0.037,-0.129 0.069,-0.207 0.094,-0.256 0.202,0.266 0.505,1.202 0.675,1.729 0.14,0.434 0.272,0.844 0.394,1.124 1.067,2.454 2.854,3.919 4.782,3.919 0.802,0 1.592,-0.248 2.358,-0.738 -0.618,2.576 -1.382,6.644 -2.063,10.268 -0.186,0.99 -0.368,1.957 -0.542,2.869 -0.836,0.408 -5.244,2.685 -4.905,4.744 0.1,0.609 0.557,1.334 2.168,1.334 0.576,0 1.201,-0.1 1.612,-0.199 -0.292,1.932 -1.626,5.898 -5.098,10.248 -1.489,1.865 -4.141,3.748 -6.71,3.748 -1.125,0 -2.12,-0.367 -2.957,-1.092 -1.228,-1.064 -1.656,-2.219 -1.238,-3.34 0.467,-1.251 1.828,-2.081 2.524,-2.081 0.074,0 0.207,0.011 0.262,0.085 0.054,0.07 0.056,0.217 0,0.402 -0.068,0.247 -0.025,0.488 0.122,0.68 0.162,0.213 0.442,0.346 0.73,0.346 0.41,0 0.721,-0.255 0.793,-0.649 0.126,-0.696 0.012,-1.263 -0.342,-1.687 -0.392,-0.47 -1.044,-0.718 -1.888,-0.718 -2.124,0 -5.232,1.669 -5.268,4.286 -0.038,2.688 0.64,4.462 4.317,6.141 1.086,0.496 2.213,0.748 3.349,0.748 7.198,0 13.528,-9.781 14.751,-18.611 2.774,-1.601 5.065,-3.521 6.529,-4.887 0.999,0.104 1.702,0.438 2.094,0.996 0.721,1.029 0.283,2.648 0.048,3.518 -0.045,0.168 -0.083,0.311 -0.107,0.422 -0.292,1.365 -0.662,2.64 -0.988,3.764 -0.732,2.522 -1.31,4.516 -0.746,6.244 0.23,0.703 0.846,1.107 1.69,1.107 1.091,0 2.453,-0.658 3.554,-1.717 1.512,-1.452 3.563,-3.646 4.403,-4.631 0.105,0.525 0.225,0.967 0.511,1.374 0.921,1.304 2.072,1.991 3.328,1.991 2.167,0 4.345,-2.033 5.551,-5.182 0.252,-0.662 0.504,-1.431 0.796,-2.321 0.117,-0.358 0.243,-0.74 0.379,-1.151 2.42,-1.541 3.805,-2.908 4.581,-3.695 -0.508,2.664 -0.916,6.959 -0.625,7.767 0.103,0.288 0.436,0.466 0.869,0.466 0.431,0 0.896,-0.191 0.965,-0.617 0.075,-0.455 1.863,-3.795 2.534,-4.934 l 0.066,-0.112 c 1.127,-1.918 2.015,-3.431 3.707,-4.931 z m -4.2,-5.33 c 0.182,-0.366 0.675,-0.699 1.036,-0.699 0.159,0 0.218,0.067 0.237,0.089 0.09,0.102 0.122,0.31 0.087,0.584 -0.092,0.742 -0.619,1.5 -1.105,2.152 -0.324,0.434 -0.707,0.856 -1.204,1.326 0.152,-1.13 0.406,-2.357 0.949,-3.452 z m -26.802,-19.382 0.033,-0.247 0,0 0,0.246 c 0.382,0 0.625,0.107 0.745,0.329 0.357,0.663 -0.357,2.173 -0.547,2.464 -0.746,1.354 -2.217,3.441 -5.034,5.871 0.95,-2.79 3.343,-8.535 4.803,-8.663 z m -16.913,6.803 c -0.125,0.291 -0.24,0.561 -0.379,0.918 -1.223,3.137 -2.461,5.689 -4.528,7.957 -1.252,1.377 -2.391,2.135 -3.206,2.135 -0.781,0 -1.091,-0.697 -1.213,-1.281 -0.511,-2.441 1.458,-8.275 7.043,-10.721 0.265,-0.116 0.574,-0.178 0.894,-0.178 0.713,0 1.396,0.311 1.587,0.705 -0.071,0.169 -0.135,0.32 -0.198,0.465 z m 6.312,22.25 c -0.046,0.275 -0.094,0.559 -0.12,0.83 -0.593,0.374 -1.411,0.821 -2.155,0.986 -0.209,-0.053 -0.295,-0.123 -0.305,-0.172 -0.033,-0.172 0.324,-0.625 1.071,-1.143 0.458,-0.336 0.979,-0.648 1.582,-0.949 -0.022,0.149 -0.048,0.3 -0.073,0.448 z m 2.77,-0.543 c 0.026,-0.197 0.06,-0.4 0.094,-0.6 0.036,-0.216 0.071,-0.424 0.094,-0.613 0.955,-0.359 1.502,-0.438 2.187,-0.535 0.099,-0.015 0.202,-0.029 0.31,-0.045 -1.019,0.703 -2.119,1.441 -2.685,1.793 z m 25.398,1.904 c -0.403,1.624 -1.349,5.425 -3.536,6.73 -1.086,0.647 -1.964,0.543 -2.623,-0.332 -0.78,-1.034 -1.002,-2.808 -0.948,-3.193 1.352,-1.716 1.339,-2.268 1.211,-2.532 -0.081,-0.166 -0.244,-0.262 -0.448,-0.262 -0.302,0 -0.696,0.217 -0.897,0.493 0,0.003 -0.01,0.007 -0.01,0.011 0.164,-4.46 2.647,-7.167 3.991,-7.639 0.779,-0.271 1.68,-0.043 2.313,0.592 0.468,0.469 1.026,1.369 1.024,3 -10e-4,0.764 0.033,1.227 0.058,1.564 0.043,0.553 0.06,0.782 -0.137,1.568 z"
       id="path33" />
    <path
       inkscape:connector-curvature="0"
       d="m 389.39101,511.36625 0,0 c 1.842,0 3.789,-0.912 5.208,-2.44 2.265,-2.444 3.583,-5.564 3.713,-8.786 0.113,-2.646 -0.233,-4.525 -2.335,-6.294 -2.391,-2.009 -5.279,-1.74 -7.651,0.616 -1.059,1.05 -1.108,2.22 -0.801,2.965 0.188,0.456 0.374,0.453 0.485,0.452 0.425,-0.074 0.691,-0.212 0.837,-0.431 0.192,-0.289 0.115,-0.627 0.04,-0.953 -0.095,-0.418 -0.186,-0.813 0.175,-1.197 0.985,-1.059 2.361,-1.715 3.589,-1.715 0.876,0 1.632,0.318 2.249,0.947 2.191,2.244 3.042,4.822 0.07,10.109 -1.384,2.46 -3.559,3.929 -5.817,3.93 -1.258,0 -2.395,-0.479 -3.201,-1.345 -0.943,-1.015 -1.374,-2.472 -1.247,-4.212 0.241,-3.334 1.598,-10.354 1.995,-11.936 0.023,-0.094 0.05,-0.213 0.082,-0.35 0.344,-1.516 1.15,-5.066 4.036,-5.066 0.201,0 0.413,0.018 0.627,0.053 0.498,0.079 0.807,0.221 0.918,0.422 0.151,0.271 -0.037,0.721 -0.218,1.154 -0.176,0.42 -0.357,0.854 -0.288,1.244 0.01,0.045 0.027,0.084 0.054,0.116 0.191,0.253 0.579,0.679 1.031,0.679 0.139,0 0.27,-0.041 0.389,-0.119 0.474,-0.314 0.76,-0.85 0.804,-1.507 0.063,-0.935 -0.373,-2.01 -1.061,-2.614 -0.469,-0.414 -1.455,-0.896 -2.687,-0.896 -1.372,0 -3.84,0.63 -4.962,4.854 -0.467,1.754 -1.031,4.742 -1.571,7.673 -0.199,-0.085 -0.602,-0.394 -0.882,-0.608 -0.513,-0.394 -1.044,-0.801 -1.477,-0.922 -0.769,-0.215 -1.471,-0.318 -2.147,-0.318 -1.619,0 -3.149,0.623 -4.676,1.903 -2.765,2.32 -4.67,6.052 -5.365,10.505 -0.439,2.817 0.528,4.646 1.417,5.684 1.154,1.35 2.874,2.154 4.599,2.154 0.96,0 1.857,-0.253 2.595,-0.73 2.184,-1.414 3.47,-2.904 4.438,-4.27 -0.854,7.4 -4.091,28.117 -13.479,28.117 l 0,0 c -0.058,0 -0.116,-10e-4 -0.174,-0.002 0.039,-0.353 -0.013,-0.723 -0.152,-1.068 -0.315,-0.783 -1.009,-1.311 -1.728,-1.311 -0.183,0 -0.361,0.035 -0.528,0.104 -0.356,0.143 -0.642,0.432 -0.805,0.814 -0.207,0.485 -0.2,1.074 0.018,1.615 0.114,0.287 0.285,0.543 0.508,0.762 0.06,0.121 0.137,0.221 0.241,0.313 1.017,0.885 2.382,1.372 3.844,1.372 1.065,0 2.104,-0.257 3.005,-0.743 5.312,-2.861 10.079,-17.098 11.049,-32.744 1.036,2.573 2.896,4.02 5.236,4.02 z m -6.432,-6.947 c -0.53,2.236 -1.49,4.791 -4.587,6.785 -1.073,0.691 -2.091,1.041 -3.024,1.041 -2.5,0 -3.832,-2.528 -4.012,-4.877 -0.011,-0.139 -0.026,-0.279 -0.042,-0.426 -0.057,-0.53 -0.117,-1.08 0.027,-1.783 0.691,-3.382 2.023,-7.087 6.663,-8.923 0.476,-0.188 0.956,-0.284 1.426,-0.284 1.056,0 2.023,0.488 2.724,1.373 1.224,1.549 1.524,4.134 0.825,7.094 z"
       id="path35" />
    <path
       inkscape:connector-curvature="0"
       d="m 313.76101,468.52725 -4.629,0.161 c -1.617,0.06 -3.424,0.156 -4.766,0.254 l 0,-0.032 c 1.245,-0.426 2.588,-0.991 4.052,-1.648 l 4.941,-2.232 -0.101,-1.051 -5.393,-1.387 c -1.533,-0.397 -2.914,-0.714 -4.207,-0.957 l 0,-0.048 c 1.338,-0.114 3.127,-0.385 4.617,-0.609 l 4.687,-0.73 -0.132,-1.354 -10.666,1.713 0.172,1.768 5.377,1.406 c 1.398,0.345 2.614,0.613 3.723,0.778 l 0.01,0.047 c -1.09,0.379 -2.23,0.861 -3.509,1.435 l -5.013,2.336 0.172,1.767 10.805,-0.295 -0.128,-1.322 z"
       id="path37" />
    <path
       inkscape:connector-curvature="0"
       d="m 313.16101,454.89925 -3.222,-1.547 0.491,-3.794 3.514,-0.707 0.191,-1.476 -11.173,2.265 -0.216,1.666 10.229,5.022 0.186,-1.429 z m -4.264,-1.973 -2.96,-1.448 c -0.623,-0.291 -1.252,-0.55 -1.866,-0.791 l 0,-0.032 c 0.64,-0.079 1.296,-0.155 2.024,-0.303 l 3.215,-0.649 -0.417,3.223 z"
       id="path39" />
    <path
       inkscape:connector-curvature="0"
       d="m 309.63901,443.61125 c 3.355,1.115 5.899,-0.452 6.858,-3.336 0.413,-1.245 0.494,-2.297 0.412,-2.864 l -1.139,-0.075 c 0.081,0.617 -0.023,1.493 -0.292,2.298 -0.827,2.49 -2.916,3.397 -5.422,2.565 -2.687,-0.893 -3.692,-2.997 -2.895,-5.396 0.282,-0.851 0.702,-1.503 1.112,-1.924 l -0.973,-0.677 c -0.299,0.289 -0.839,1.003 -1.263,2.278 -1.052,3.173 0.398,6.067 3.602,7.131 z"
       id="path41" />
    <polygon
       transform="translate(222.26001,329.78425)"
       points="89.903,96.686 91.509,93.808 90.476,93.231 86.585,100.201 87.618,100.777 89.217,97.915 97.597,102.592 98.282,101.363 "
       id="polygon43" />
    <polygon
       transform="translate(222.26001,329.78425)"
       points="101.49,96.299 105.284,91.567 104.374,90.836 101.449,94.482 98.415,92.049 101.039,88.777 100.14,88.056 97.517,91.329 94.856,89.196 97.63,85.737 96.719,85.006 93.075,89.551 "
       id="polygon45" />
    <path
       inkscape:connector-curvature="0"
       d="m 330.88401,418.05525 -2.867,-3.232 c 0.292,-0.153 0.589,-0.396 0.9,-0.672 1.018,-0.902 1.65,-1.998 1.681,-3.074 0.036,-0.78 -0.259,-1.545 -0.907,-2.276 -0.637,-0.718 -1.42,-1.071 -2.203,-1.061 -0.861,-0.007 -1.828,0.422 -2.857,1.336 -0.838,0.744 -1.433,1.399 -1.861,1.93 l 7.072,7.974 1.042,-0.925 z m -6.404,-7.219 c 0.137,-0.207 0.451,-0.552 0.906,-0.956 1.15,-1.019 2.361,-1.173 3.307,-0.107 0.987,1.114 0.763,2.404 -0.494,3.52 -0.348,0.308 -0.656,0.539 -0.938,0.68 l -2.781,-3.137 z"
       id="path47" />
    <path
       inkscape:connector-curvature="0"
       d="m 341.49601,410.36025 c 1.12,-0.684 1.86,-1.437 2.165,-1.921 l -0.821,-0.792 c -0.337,0.524 -0.982,1.124 -1.707,1.566 -2.24,1.367 -4.423,0.71 -5.797,-1.544 -1.477,-2.418 -0.884,-4.673 1.274,-5.991 0.766,-0.467 1.508,-0.694 2.093,-0.751 l -0.306,-1.145 c -0.414,0.028 -1.289,0.223 -2.437,0.924 -2.855,1.743 -3.616,4.888 -1.858,7.771 1.844,3.019 4.798,3.467 7.394,1.883 z"
       id="path49" />
    <path
       inkscape:connector-curvature="0"
       d="m 348.04101,406.91625 -1.763,-4.62 0.419,-0.159 c 1.704,-0.65 2.694,0.017 3.666,1.17 0.571,0.689 1.197,1.479 1.818,2.029 l 1.405,-0.535 c -0.791,-0.726 -1.428,-1.546 -2.195,-2.434 -1.043,-1.16 -2.072,-1.932 -3.818,-1.523 l 2.051,-6.074 -1.569,0.599 -1.749,5.787 -0.404,0.155 -1.705,-4.47 -1.285,0.49 3.844,10.076 1.285,-0.491 z"
       id="path51" />
    <path
       inkscape:connector-curvature="0"
       d="m 357.49701,400.45025 3.767,-0.659 1.719,3.143 1.467,-0.257 -5.484,-9.987 -1.655,0.289 -1.75,11.255 1.419,-0.249 0.517,-3.535 z m 0.599,-4.377 c 0.091,-0.682 0.151,-1.358 0.199,-2.017 l 0.03,-0.005 c 0.266,0.586 0.533,1.188 0.891,1.842 l 1.576,2.875 -3.199,0.561 0.503,-3.256 z"
       id="path53" />
    <path
       inkscape:connector-curvature="0"
       d="m 368.36401,401.80425 c 0.402,-1.018 0.733,-2.596 1.482,-3.334 0.391,-0.378 0.889,-0.513 1.561,-0.501 l 1.024,0.018 -0.081,4.672 1.392,0.023 0.186,-10.638 c -0.7,-0.157 -1.659,-0.254 -2.571,-0.27 -1.359,-0.023 -2.421,0.246 -3.102,0.778 -0.617,0.486 -1.015,1.23 -1.031,2.174 -0.025,1.471 1.014,2.45 2.338,2.698 l 0,0.047 c -0.322,0.091 -0.646,0.277 -0.906,0.529 -0.896,0.865 -1.21,2.363 -1.695,3.586 -0.134,0.351 -0.284,0.684 -0.448,0.968 l 1.487,0.026 c 0.165,-0.284 0.248,-0.506 0.365,-0.776 z m 0.267,-6.989 c 0.025,-1.488 1.202,-1.996 2.579,-1.971 0.623,0.01 1.07,0.098 1.311,0.15 l -0.07,3.919 c -0.271,0.012 -0.72,0.004 -1.184,-0.005 -1.521,-0.026 -2.658,-0.798 -2.636,-2.093 z"
       id="path55" />
    <polygon
       transform="translate(222.26001,329.78425)"
       points="167.75,76.548 170.987,66.26 163.554,63.921 160.315,74.208 161.645,74.627 164.531,65.453 169.309,66.957 166.422,76.13 "
       id="polygon57" />
    <path
       inkscape:connector-curvature="0"
       d="m 397.06601,410.08725 c 2.381,1.383 5.322,0.812 7.186,-2.399 1.607,-2.769 1.093,-5.677 -1.455,-7.156 -2.492,-1.446 -5.459,-0.577 -7.178,2.387 -1.639,2.823 -1.018,5.739 1.447,7.168 z m -0.145,-6.449 c 1.189,-2.049 3.256,-3.312 5.249,-2.155 2.007,1.165 1.853,3.666 0.775,5.52 -1.229,2.119 -3.329,3.25 -5.24,2.142 -1.896,-1.101 -1.94,-3.514 -0.784,-5.507 z"
       id="path59" />
    <path
       inkscape:connector-curvature="0"
       d="m 403.69801,412.72025 -2.428,2.791 0.803,0.735 1.822,-1.846 5.016,4.594 -1.681,1.977 0.802,0.735 2.568,-2.661 -0.675,-0.661 6.52,-7.115 -4.449,-4.076 -1.849,2.018 c -1.254,1.368 -2.332,2.333 -3.447,3.005 -0.762,0.452 -1.586,0.76 -2.379,1.032 l -0.623,-0.528 z m 3.729,0.573 c 1.105,-0.637 2.207,-1.603 3.375,-2.877 l 1.373,-1.499 2.465,2.26 -5.729,6.254 -3.516,-3.222 c 0.625,-0.208 1.359,-0.512 2.032,-0.916 z"
       id="path61" />
    <path
       inkscape:connector-curvature="0"
       d="m 412.26301,422.81525 3.41,-1.058 2.221,3.112 -2.092,2.907 0.863,1.21 6.641,-9.256 -0.976,-1.367 -10.903,3.28 0.836,1.172 z m 7.615,-2.407 c 0.654,-0.212 1.291,-0.45 1.905,-0.691 l 0.018,0.026 c -0.415,0.493 -0.843,0.994 -1.276,1.599 l -1.912,2.661 -1.887,-2.642 3.152,-0.953 z"
       id="path63" />
    <path
       inkscape:connector-curvature="0"
       d="m 418.62801,432.95425 3.939,-1.775 c 0.059,0.325 0.201,0.682 0.372,1.062 0.559,1.24 1.417,2.17 2.435,2.519 0.734,0.266 1.553,0.214 2.442,-0.187 0.876,-0.395 1.446,-1.038 1.67,-1.789 0.263,-0.82 0.14,-1.871 -0.425,-3.126 -0.461,-1.021 -0.909,-1.784 -1.287,-2.352 l -9.719,4.378 0.573,1.27 z m 8.799,-3.963 c 0.156,0.193 0.391,0.597 0.641,1.15 0.631,1.401 0.418,2.603 -0.881,3.188 -1.357,0.611 -2.521,0.012 -3.212,-1.52 -0.19,-0.423 -0.319,-0.786 -0.372,-1.097 l 3.824,-1.721 z"
       id="path65" />
    <path
       inkscape:connector-curvature="0"
       d="m 422.13801,442.23225 4.807,-1.161 0.105,0.436 c 0.428,1.774 -0.359,2.672 -1.628,3.489 -0.757,0.479 -1.618,1 -2.244,1.545 l 0.354,1.462 c 0.82,-0.692 1.714,-1.22 2.692,-1.869 1.285,-0.887 2.181,-1.81 1.998,-3.593 l 5.766,2.807 -0.396,-1.634 -5.519,-2.47 -0.102,-0.42 4.651,-1.123 -0.323,-1.338 -10.485,2.53 0.324,1.339 z"
       id="path67" />
    <path
       inkscape:connector-curvature="0"
       d="m 429.14401,449.63825 c -3.262,0.118 -5.396,2.196 -5.293,5.042 0.1,2.75 2.146,4.933 5.855,4.798 3.199,-0.116 5.384,-2.1 5.277,-5.042 -0.103,-2.877 -2.418,-4.923 -5.839,-4.798 z m 0.445,8.372 c -2.445,0.088 -4.521,-1.085 -4.6,-3.292 -0.08,-2.19 1.938,-3.512 4.24,-3.595 2.365,-0.086 4.533,0.989 4.617,3.292 0.084,2.316 -2.113,3.517 -4.257,3.595 z"
       id="path69" />
    <path
       inkscape:connector-curvature="0"
       d="m 423.84101,462.89225 c -0.141,0.447 -0.325,1.162 -0.484,2.108 -0.292,1.735 -0.178,2.986 0.376,3.842 0.43,0.624 1.062,1.103 1.978,1.257 1.577,0.266 2.611,-0.776 3.033,-1.743 l 0.033,0.005 c 0.221,1.189 1.006,2.019 2.031,2.191 0.836,0.141 1.523,-0.084 2.025,-0.567 0.647,-0.573 1.033,-1.416 1.263,-2.788 0.162,-0.961 0.227,-1.924 0.202,-2.545 l -10.457,-1.76 z m 4.641,3.361 c -0.252,1.498 -1.061,2.643 -2.512,2.398 -1.545,-0.26 -1.847,-1.656 -1.607,-3.076 0.082,-0.488 0.164,-0.881 0.258,-1.141 l 4.053,0.682 -0.192,1.137 z m 4.545,0.845 c -0.234,1.388 -0.881,2.251 -2.127,2.042 -1.025,-0.172 -1.639,-1.151 -1.396,-2.602 l 0.21,-1.247 3.422,0.575 c 0.011,0.23 0,0.601 -0.109,1.232 z"
       id="path71" />
    <path
       inkscape:connector-curvature="0"
       d="m 308.68401,475.78425 c 1.838,5.609 4.467,10.875 7.771,15.66 l 2.729,0 c -3.464,-4.751 -6.23,-10.02 -8.16,-15.66 l -2.34,0 z"
       id="path73" />
    <path
       inkscape:connector-curvature="0"
       d="m 418.03101,491.44425 2.732,0 c 3.302,-4.785 5.931,-10.051 7.769,-15.66 l -2.339,0 c -1.932,5.641 -4.698,10.909 -8.162,15.66 z"
       id="path75" />
  </g>
</svg>
