<?xml version="1.0" encoding="iso-8859-1"?>
<!-- Generator: Adobe Illustrator 19.0.0, SVG Export Plug-In . SVG Version: 6.00 Build 0)  -->
<svg version="1.1" id="Capa_1" xmlns="http://www.w3.org/2000/svg" xmlns:xlink="http://www.w3.org/1999/xlink" x="0px" y="0px"
	 viewBox="0 0 530.939 530.939" style="enable-background:new 0 0 530.939 530.939;" xml:space="preserve">
<g>
	<g>
		<path d="M464.125,336.813l-63.524-63.502l15.881-15.892l63.524,63.513L464.125,336.813z M257.661,130.36l-63.546-63.546
			l15.881-15.881l63.557,63.546L257.661,130.36z"/>
		<path d="M202.066,530.939c-51.778,0-103.545-19.698-142.973-59.093c-78.791-78.835-78.791-207.078,0-285.902L241.78,3.29
			c4.387-4.387,11.494-4.387,15.881,0l63.535,63.546c4.387,4.387,4.387,11.494,0,15.881L154.423,249.49l0,0
			c-16.978,16.967-26.322,39.527-26.322,63.546c0,23.997,9.333,46.568,26.3,63.524c35.041,35.03,92.04,35.008,127.07,0
			l166.751-166.783c4.212-4.212,11.669-4.212,15.881,0l63.546,63.557c4.387,4.387,4.387,11.494,0,15.881L344.995,471.846
			C305.6,511.241,253.833,530.939,202.066,530.939z M249.72,27.112L74.974,201.825c-70.039,70.061-70.039,184.079,0,254.14
			c70.105,70.039,184.101,70.061,254.14,0l174.713-174.691l-47.665-47.676l-158.81,158.843c-43.782,43.782-115.05,43.782-158.832,0
			c-21.211-21.211-32.892-49.42-32.881-79.427c0-30.007,11.691-58.205,32.903-79.405L297.374,74.777L249.72,27.112z"/>
	</g>
</g>
<g>
</g>
<g>
</g>
<g>
</g>
<g>
</g>
<g>
</g>
<g>
</g>
<g>
</g>
<g>
</g>
<g>
</g>
<g>
</g>
<g>
</g>
<g>
</g>
<g>
</g>
<g>
</g>
<g>
</g>
</svg>
