<?xml version="1.0" encoding="iso-8859-1"?>
<!-- Generator: Adobe Illustrator 18.0.0, SVG Export Plug-In . SVG Version: 6.00 Build 0)  -->
<!DOCTYPE svg PUBLIC "-//W3C//DTD SVG 1.1//EN" "http://www.w3.org/Graphics/SVG/1.1/DTD/svg11.dtd">
<svg version="1.1" id="Capa_1" xmlns="http://www.w3.org/2000/svg" xmlns:xlink="http://www.w3.org/1999/xlink" x="0px" y="0px"
	 viewBox="0 0 376.38 376.38" style="enable-background:new 0 0 376.38 376.38;" xml:space="preserve">
<path d="M363.654,108.75c0.104-6.767-0.342-13.463-1.349-20.062c-6.71-43.976-38.435-78.942-78.944-87.008
	c-18.199-3.626-36.705-1.357-53.509,6.555c-16.038,7.554-30.019,19.825-41.661,36.53c-11.645-16.705-25.625-28.977-41.663-36.53
	C129.725,0.321,111.22-1.945,93.018,1.68C52.509,9.747,20.784,44.712,14.074,88.689c-1.007,6.6-1.451,13.298-1.349,20.065
	c-0.002,0.082,0.851,73.813,0.876,74.022c3.72,31.754,18.704,63.56,44.535,94.535c29.402,35.255,72.191,68.34,127.181,98.336
	c0.912,0.497,1.896,0.733,2.868,0.733c0.004,0,0.007-0.001,0.011-0.001v0.001c1.57,0,2.767-0.678,2.868-0.733
	c54.988-29.996,97.777-63.081,127.179-98.336c25.831-30.976,40.815-62.781,44.535-94.535
	C362.803,182.567,363.657,108.833,363.654,108.75z M302.868,21.236L271.95,72.758c-10.384,4.784-18.358,11.691-23.747,17.411
	c-1.4-0.333-2.853-0.528-4.353-0.528h-8.287c-1.5,0-2.951,0.195-4.351,0.528c-0.38-0.402-0.771-0.811-1.176-1.223l45.661-76.356
	c1.768,0.227,3.539,0.504,5.319,0.858C288.709,14.98,296.039,17.632,302.868,21.236z M144.603,290.412v46.621
	c-7.266-4.885-14.085-9.749-20.508-14.583v-46.072C130.656,281.113,137.494,285.792,144.603,290.412z M126.003,262.918
	l68.405-114.391c1.535-0.334,3.02-0.739,4.48-1.174c-6.023,9.433-12.363,21.318-17.734,35.689c-0.928,2.482-0.118,5.277,1.992,6.88
	l12.959,9.838l-47.443,78.976C140.75,273.532,133.194,268.258,126.003,262.918z M220.868,120.16
	c-0.056,0.056-1.207,1.124-2.195,2.104c-8.127,7.459-20.647,15.53-36.876,15.667c-1.061-1.256-4.662-7.161-4.662-29.479
	c0-22.248,3.612-28.214,4.667-29.479c17.769,0.151,31.093,9.813,39.068,17.768c-2.568,3.217-4.115,7.285-4.115,11.712
	C216.755,112.878,218.301,116.943,220.868,120.16z M194.002,183.096c11.995-29.847,28.319-47.528,33.326-52.501
	c0.499-0.466,3.274-3.221,3.882-3.864c0.718,0.171,1.446,0.31,2.193,0.396c-12.358,18.697-26.282,48.005-32.386,61.295
	L194.002,183.096z M228.755,108.452c0-3.755,3.055-6.811,6.809-6.811h8.287c3.754,0,6.809,3.056,6.809,6.811
	c0,3.754-3.055,6.809-6.809,6.809h-8.287C231.81,115.26,228.755,112.206,228.755,108.452z M248.202,126.732
	c1.202,1.275,2.521,2.604,3.979,3.961c5.107,5.09,21.307,22.73,33.23,52.403l-7.014,5.325c-6.103-13.29-20.026-42.597-32.388-61.295
	C246.756,127.041,247.485,126.902,248.202,126.732z M258.546,120.16c2.567-3.217,4.113-7.282,4.113-11.708
	c0-4.427-1.547-8.494-4.115-11.711c7.975-7.956,21.298-17.617,39.066-17.769c1.056,1.266,4.668,7.231,4.668,29.479
	c0,22.248-3.612,28.213-4.668,29.479c-16.24-0.138-28.764-8.221-36.888-15.685C259.764,121.296,258.61,120.223,258.546,120.16z
	 M25.938,90.499c5.95-39.002,33.85-69.966,69.424-77.05c34.137-6.799,66.101,9.759,87.697,45.422
	c1.716,2.834,5.405,3.742,8.24,2.023c0.858-0.52,1.537-1.222,2.022-2.025l0.002,0.002c17.532-28.951,41.895-45.311,68.708-46.805
	l-41.145,68.803c-9.583-7.268-22.738-13.799-39.136-13.897c-1.545-0.139-4.226,0.049-7.043,2.243
	c-6.441,5.018-9.573,17.853-9.573,39.237c0,21.385,3.132,34.219,9.573,39.236c1.777,1.385,3.499,1.971,4.917,2.18l-63.218,105.716
	c-26.492-20.862-47.556-42.708-62.966-65.359C30.613,156.669,21.103,122.184,25.938,90.499z M25.557,181.689l-0.201-17.418
	c4.748,10.948,10.806,21.886,18.164,32.703c16.69,24.533,39.642,48.084,68.575,70.446v45.655
	C45.696,259.185,28.961,210.085,25.557,181.689z M182.191,360.172c-9.038-5.112-17.547-10.222-25.588-15.317v-46.86
	c8.202,5.044,16.725,10.017,25.588,14.912V360.172z M350.823,181.689c-4.381,36.526-30.797,107.31-156.633,178.483v-47.265
	c63.552-35.098,110.204-74.089,138.67-115.934c7.358-10.816,13.416-21.754,18.164-32.702L350.823,181.689z M322.94,190.224
	c-27.428,40.316-72.762,78.083-134.748,112.288c-10.271-5.668-20.075-11.435-29.426-17.294l84.188-140.139
	c13.654,23.655,27.424,54.721,27.59,55.096c0.742,1.679,2.211,2.926,3.988,3.385c0.495,0.128,0.999,0.19,1.5,0.19
	c1.297,0,2.573-0.421,3.628-1.222l16.607-12.608c2.11-1.602,2.92-4.397,1.992-6.879c-5.364-14.355-11.697-26.232-17.716-35.661
	c5.237,1.557,10.945,2.514,17.119,2.551c0.239,0.021,0.504,0.036,0.792,0.036c1.585,0,3.868-0.423,6.252-2.279
	c6.441-5.018,9.573-17.852,9.573-39.236c0-21.385-3.132-34.22-9.573-39.237c-2.817-2.194-5.494-2.383-7.043-2.243
	c-2.993,0.019-5.872,0.259-8.647,0.671l24.033-40.05c19.483,14.143,33.397,36.704,37.395,62.906
	C355.278,122.184,345.767,156.669,322.94,190.224z"/>
<g>
</g>
<g>
</g>
<g>
</g>
<g>
</g>
<g>
</g>
<g>
</g>
<g>
</g>
<g>
</g>
<g>
</g>
<g>
</g>
<g>
</g>
<g>
</g>
<g>
</g>
<g>
</g>
<g>
</g>
</svg>
