<?xml version="1.0" encoding="iso-8859-1"?>
<!-- Generator: Adobe Illustrator 18.0.0, SVG Export Plug-In . SVG Version: 6.00 Build 0)  -->
<!DOCTYPE svg PUBLIC "-//W3C//DTD SVG 1.1//EN" "http://www.w3.org/Graphics/SVG/1.1/DTD/svg11.dtd">
<svg version="1.1" id="Capa_1" xmlns="http://www.w3.org/2000/svg" xmlns:xlink="http://www.w3.org/1999/xlink" x="0px" y="0px"
	 viewBox="0 0 402.904 402.904" style="enable-background:new 0 0 402.904 402.904;" xml:space="preserve">
<g>
	<g>
		<g>
			<path d="M130.2,76.055c-2.819,0-5.333-1.996-5.886-4.867c-2.066-10.738-0.584-19.654,4.407-26.5
				c7.023-9.634,18.403-11.117,18.885-11.176c3.288-0.415,6.279,1.942,6.68,5.233c0.397,3.275-1.923,6.254-5.19,6.675
				c-0.211,0.03-6.904,1.066-10.746,6.432c-2.896,4.044-3.654,9.786-2.252,17.069c0.626,3.254-1.504,6.399-4.758,7.025
				C130.958,76.02,130.575,76.055,130.2,76.055z"/>
		</g>
		<path d="M316.631,170.373c-4.94-7.381-12.899-11.311-22.142-11.25c0.043-9.245-3.905-17.199-11.298-22.125
			c-9.804-6.533-23.171-5.924-33.266,1.516c-7.593,5.594-23.415,23.01-12.442,66.164c-4.112,1.406-9.754,3.844-15.531,7.922
			c-3.515,2.482-7.322,5.761-10.898,10.016c-0.184-29.154-4.718-51.329-6.88-60.279c78.334-54.343,76.337-102.275,71.747-120.538
			c-5.691-22.643-24.064-39.341-45.719-41.552c-18.223-1.862-34.839,6.918-45.799,23.773C170.46,9.528,152.479,4.039,134.938,9.298
			C114.089,15.55,99.191,35.411,97.87,58.72c-1.071,18.886,6.078,66.676,94.362,105.378c2.391,9.834,9.93,45.72,5.14,90.032
			c-0.051,0.338-0.105,0.67-0.152,1.013c-4.166-6.99-9.623-12.015-14.699-15.529c-6.221-4.309-12.542-6.844-17.063-8.27
			c10.922-43.078-4.881-60.472-12.467-66.062c-10.094-7.438-23.463-8.047-33.267-1.516c-7.393,4.926-11.34,12.88-11.298,22.124
			c-9.246-0.063-17.211,3.868-22.153,11.251c-6.553,9.788-5.973,23.156,1.443,33.267c4.231,5.769,15.243,16.299,39.163,16.299
			c8.673,0,19.065-1.406,31.424-4.905c6.511,1.452,37.141,11.562,33.756,43.352c-0.613,2.575-1.292,5.167-2.004,7.766h-56.529
			c-1.784,0-3.477,0.795-4.617,2.168c-1.139,1.374-1.608,3.184-1.279,4.938l5.652,30.15c0.531,2.838,3.01,4.895,5.896,4.895h7.234
			l11.357,62.901c0.516,2.856,3.002,4.934,5.904,4.934H226.8c2.902,0,5.389-2.077,5.904-4.934l11.357-62.901h7.234
			c2.887,0,5.365-2.057,5.897-4.895l5.654-30.15c0.329-1.754-0.141-3.563-1.28-4.938c-1.14-1.373-2.832-2.168-4.617-2.168h-54.469
			c3.459-13.275,5.689-26.207,6.996-38.47c5.268-30.397,29.35-38.006,35.16-39.406c12.345,3.491,22.722,4.895,31.387,4.895
			c23.917-0.002,34.932-10.531,39.163-16.299C322.604,193.529,323.184,180.161,316.631,170.373z M153.21,230.771
			c-26.411,7.085-47.144,4.364-55.816-7.46c-4.44-6.053-4.902-13.887-1.148-19.493c3.492-5.216,9.907-7.117,17.598-5.221
			c3.215,0.795,6.469-1.17,7.264-4.388c0.24-0.977,0.225-1.955-0.001-2.868l0.015-0.004c-1.881-7.695,0.035-14.105,5.259-17.585
			c5.616-3.741,13.45-3.263,19.493,1.19C157.677,183.641,160.351,204.379,153.21,230.771z M221.786,390.904h-53.098l-10.081-55.835
			h73.261L221.786,390.904z M246.316,323.069H144.159l-3.402-18.15h108.964L246.316,323.069z M196.662,152.94
			c-81.033-35.632-87.739-77.189-86.812-93.54c1.037-18.285,12.504-33.8,28.534-38.607c15.257-4.574,30.628,1.705,42.173,17.233
			c1.978,2.659,5.734,3.211,8.395,1.235c0.81-0.603,1.422-1.372,1.83-2.224l0.035,0.018c8.41-17.423,22.316-26.485,38.167-24.871
			c16.649,1.7,30.835,14.776,35.299,32.539C268.275,60.607,269.521,102.68,196.662,152.94z M305.512,196.542
			c-8.671,11.82-29.401,14.542-55.805,7.462c-7.142-26.393-4.468-47.131,7.337-55.83c6.044-4.455,13.877-4.931,19.493-1.189
			c5.224,3.48,7.141,9.89,5.259,17.585l0.004,0.001c-0.226,0.914-0.242,1.893-0.001,2.87c0.794,3.217,4.047,5.182,7.263,4.388
			c7.689-1.896,14.106,0.005,17.598,5.221C310.412,182.655,309.951,190.489,305.512,196.542z"/>
	</g>
</g>
<g>
</g>
<g>
</g>
<g>
</g>
<g>
</g>
<g>
</g>
<g>
</g>
<g>
</g>
<g>
</g>
<g>
</g>
<g>
</g>
<g>
</g>
<g>
</g>
<g>
</g>
<g>
</g>
<g>
</g>
</svg>
