<?xml version="1.0" encoding="iso-8859-1"?>
<!-- Generator: Adobe Illustrator 19.0.0, SVG Export Plug-In . SVG Version: 6.00 Build 0)  -->
<svg version="1.1" id="Capa_1" xmlns="http://www.w3.org/2000/svg" xmlns:xlink="http://www.w3.org/1999/xlink" x="0px" y="0px"
	 viewBox="0 0 56.001 56.001" style="enable-background:new 0 0 56.001 56.001;" xml:space="preserve">
<g>
	<g>
		<path d="M49.504,34.001H44v-7h2c0.552,0,1-0.447,1-1v-3.5c0-2.481-2.019-4.5-4.501-4.5H13.501c-2.482,0-4.501,2.019-4.501,4.5v3.5
			c0,0.553,0.448,1,1,1h2v7H6.497c-2.479,0-4.496,2.019-4.496,4.5v3.5c0,2.421,1.731,4.444,4.02,4.901
			C6.017,46.936,6,46.966,6,47.001v8c0,0.553,0.448,1,1,1h42c0.552,0,1-0.447,1-1v-8c0-0.035-0.016-0.065-0.02-0.099
			c2.289-0.457,4.02-2.48,4.02-4.901v-3.5C54,36.019,51.983,34.001,49.504,34.001z M11,25.001v-2.5c0-1.379,1.122-2.5,2.501-2.5
			h28.998c1.379,0,2.501,1.121,2.501,2.5v2.5h-6c-0.552,0-1,0.447-1,1c0,1.654-1.346,3-3,3s-3-1.346-3-3c0-0.553-0.448-1-1-1h-6
			c-0.552,0-1,0.447-1,1c0,1.654-1.346,3-3,3s-3-1.346-3-3c0-0.553-0.448-1-1-1H11z M14,27.001h2.101c0.464,2.279,2.485,4,4.899,4
			s4.435-1.721,4.899-4h4.201c0.464,2.279,2.485,4,4.899,4s4.435-1.721,4.899-4H42v7H14V27.001z M48,54.001H8v-7
			c0-0.037-0.017-0.068-0.021-0.104c1.965-0.393,3.521-1.934,3.92-3.896h4.201c0.464,2.279,2.485,4,4.899,4s4.435-1.721,4.899-4
			h4.201c0.464,2.279,2.485,4,4.899,4s4.435-1.721,4.899-4h4.201c0.4,1.962,1.956,3.503,3.92,3.896
			C48.018,46.933,48,46.964,48,47.001V54.001z M52,42.001c0,1.654-1.346,3-3,3s-3-1.346-3-3c0-0.553-0.448-1-1-1h-6
			c-0.552,0-1,0.447-1,1c0,1.654-1.346,3-3,3s-3-1.346-3-3c0-0.553-0.448-1-1-1h-6c-0.552,0-1,0.447-1,1c0,1.654-1.346,3-3,3
			s-3-1.346-3-3c0-0.553-0.448-1-1-1h-6c-0.552,0-1,0.447-1,1c0,1.654-1.346,3-3,3s-3-1.346-3-3v-3.5c0-1.379,1.12-2.5,2.496-2.5H13
			h30h6.504c1.376,0,2.496,1.121,2.496,2.5V42.001z"/>
		<circle cx="21" cy="41.001" r="2"/>
		<circle cx="49" cy="41.001" r="2"/>
		<circle cx="35" cy="26.001" r="2"/>
		<path d="M27.441,16.722c0.132,0.06,0.273,0.09,0.415,0.09c0.135,0,0.271-0.027,0.398-0.083c0.264-0.114,6.476-2.846,8.029-6.791
			c0.93-2.362,0.963-4.841,0.091-6.8c-0.612-1.374-1.61-2.352-2.886-2.83C31.709-0.36,29.655,0.074,27.88,1.46
			c-1.234-0.647-3.74-1.762-5.367-1.152c-1.276,0.477-2.274,1.456-2.886,2.83c-0.872,1.959-0.839,4.438,0.091,6.8
			C21.268,13.873,27.189,16.607,27.441,16.722z M21.454,3.951c0.271-0.608,0.797-1.41,1.76-1.77c0.112-0.042,0.249-0.06,0.406-0.06
			c1.002,0,2.803,0.782,3.873,1.411c0.381,0.225,0.865,0.173,1.188-0.128c1.327-1.231,2.86-1.689,4.106-1.223
			c0.963,0.36,1.489,1.162,1.76,1.77c0.646,1.451,0.599,3.415-0.125,5.254c-0.958,2.432-4.735,4.637-6.556,5.503
			c-1.739-0.868-5.326-3.064-6.286-5.503C20.855,7.366,20.809,5.402,21.454,3.951z"/>
	</g>
</g>
<g>
</g>
<g>
</g>
<g>
</g>
<g>
</g>
<g>
</g>
<g>
</g>
<g>
</g>
<g>
</g>
<g>
</g>
<g>
</g>
<g>
</g>
<g>
</g>
<g>
</g>
<g>
</g>
<g>
</g>
</svg>
