<?xml version="1.0" encoding="iso-8859-1"?>
<!-- Generator: Adobe Illustrator 19.0.0, SVG Export Plug-In . SVG Version: 6.00 Build 0)  -->
<svg version="1.1" id="Capa_1" xmlns="http://www.w3.org/2000/svg" xmlns:xlink="http://www.w3.org/1999/xlink" x="0px" y="0px"
	 viewBox="0 0 470 470" style="enable-background:new 0 0 470 470;" xml:space="preserve">
<g>
	<path d="M323.567,13.089c-32.046,0-63.259,10.51-88.567,29.707c-25.308-19.197-56.521-29.707-88.567-29.707
		C65.689,13.089,0,78.778,0,159.521c0,83.902,53.762,160.326,85.809,198.414c22.104,26.27,46.294,49.292,69.958,66.578
		c29.839,21.8,55.756,32.397,79.231,32.397c23.475,0,49.391-10.597,79.231-32.396c23.665-17.287,47.856-40.311,69.958-66.578
		C416.236,319.851,470,243.429,470,159.521C470,78.778,404.311,13.089,323.567,13.089z M234.998,441.911
		c-20.181,0-43.204-9.652-70.383-29.509c-22.707-16.588-45.988-38.762-67.329-64.125C66.555,311.754,15,238.664,15,159.521
		C15,87.049,73.96,28.089,146.433,28.089c30.612,0,60.368,10.673,83.785,30.053c2.774,2.295,6.789,2.295,9.563,0
		c23.417-19.38,53.173-30.053,83.785-30.053C396.04,28.089,455,87.049,455,159.521c0,79.146-51.557,152.234-82.29,188.757
		c-21.34,25.362-44.622,47.536-67.33,64.125C278.201,432.259,255.178,441.911,234.998,441.911z"/>
	<path d="M426.794,159.522c0-56.919-46.308-103.227-103.227-103.227c-36.803,0-70.118,19.264-88.567,50.165
		c-18.449-30.901-51.764-50.165-88.567-50.165c-56.919,0-103.227,46.308-103.227,103.227c0,51.268,27.578,113.447,75.663,170.595
		c41.411,49.215,89.165,83.588,116.129,83.588c26.965,0,74.719-34.372,116.13-83.586
		C399.215,272.972,426.794,210.791,426.794,159.522z M234.998,398.705c-18.816,0-61.889-27.423-104.651-78.245
		C84.5,265.973,58.206,207.313,58.206,159.522c0-48.648,39.579-88.227,88.227-88.227c35.929,0,67.971,21.484,81.629,54.734
		c1.156,2.813,3.896,4.65,6.938,4.65s5.782-1.837,6.938-4.65c13.659-33.25,45.7-54.734,81.629-54.734
		c48.648,0,88.227,39.578,88.227,88.227c0,47.792-26.295,106.452-72.143,160.938C296.888,371.282,253.814,398.705,234.998,398.705z"
		/>
	<path d="M146.433,86.296c-40.377,0-73.227,32.85-73.227,73.227c0,4.143,3.358,7.5,7.5,7.5s7.5-3.357,7.5-7.5
		c0-32.106,26.121-58.227,58.227-58.227c4.142,0,7.5-3.357,7.5-7.5S150.575,86.296,146.433,86.296z"/>
	<path d="M235,329.019c-4.411,0-8,3.589-8,8s3.589,8,8,8s8-3.589,8-8S239.411,329.019,235,329.019z"/>
	<path d="M355.782,159.027c4.411,0,8-3.589,8-8s-3.589-8-8-8s-8,3.589-8,8S351.371,159.027,355.782,159.027z"/>
	<path d="M333.411,119.529c-4.411,0-8,3.589-8,8s3.589,8,8,8s8-3.589,8-8S337.822,119.529,333.411,119.529z"/>
</g>
<g>
</g>
<g>
</g>
<g>
</g>
<g>
</g>
<g>
</g>
<g>
</g>
<g>
</g>
<g>
</g>
<g>
</g>
<g>
</g>
<g>
</g>
<g>
</g>
<g>
</g>
<g>
</g>
<g>
</g>
</svg>
