<?xml version="1.0" encoding="utf-8"?>
<!-- Generator: Adobe Illustrator 16.2.0, SVG Export Plug-In . SVG Version: 6.00 Build 0)  -->
<!DOCTYPE svg PUBLIC "-//W3C//DTD SVG 1.1//EN" "http://www.w3.org/Graphics/SVG/1.1/DTD/svg11.dtd">
<svg version="1.1" id="Слой_1" xmlns="http://www.w3.org/2000/svg" xmlns:xlink="http://www.w3.org/1999/xlink" x="0px" y="0px"
	 width="100px" height="100px" viewBox="0 0 100 100" enable-background="new 0 0 100 100" xml:space="preserve">
<path fill-rule="evenodd" clip-rule="evenodd" fill="#D857FF" d="M49.914,4.487c27.318,0,49.46,22.145,49.46,49.46
	c0,12.502-4.633,23.916-12.286,32.623l-0.162-16.563c-0.057-5.396-0.057-5.396-0.057-5.396s0,0-1.039-0.072
	c-1.039-0.078-3.124-0.229-4.163-0.305c-1.043-0.078-1.043-0.078-1.056-0.078c-0.008,0-0.032,0-0.04-5.494
	C80.56,53.168,80.56,42.177,80.56,36.68c0-5.496,0-5.496,0-5.496s0,0-9.86,0.664c-9.86,0.665-29.583,1.994-39.445,2.658
	c-9.86,0.663-9.86,0.663-9.86,0.663s0,0,0.018,4.232c0.018,4.229,0.053,12.688,0.069,16.925c0.019,4.227,0.019,4.227,0.019,4.227
	s0,0-1.254-0.109c-1.253-0.109-3.763-0.324-5.017-0.434C13.975,59.9,13.975,59.9,13.975,59.9s0,0,0,5.773
	c0,5.471,0,16.139,0.055,22.316C5.614,79.121,0.451,67.139,0.451,53.947C0.451,26.631,22.595,4.487,49.914,4.487L49.914,4.487z
	 M38.8,33.114c5.973-0.394,17.4-1.132,23.119-1.522c5.717-0.387,5.712-0.424,5.708-0.44c0-0.019,0-0.019-0.194-0.292
	c-0.198-0.276-0.593-0.826-1.178-1.339c-0.583-0.516-1.358-0.992-1.991-1.412c-0.634-0.42-1.124-0.783-1.367-1.138
	c-0.244-0.357-0.244-0.704,0.081-1.438c0.324-0.735,0.97-1.853,1.351-2.526c0.382-0.672,0.499-0.895,0.557-1.006
	c0.061-0.112,0.061-0.112,0.061-0.118c0-0.006-0.005-0.019-0.41-0.105c-0.406-0.088-1.217-0.251-2.098-0.296
	c-0.876-0.045-1.821,0.028-2.763,0.215c-0.949,0.187-1.899,0.489-3.008,1.069c-1.107,0.581-2.369,1.442-3.41,2.408
	c-1.038,0.966-1.856,2.039-2.266,2.575c-0.406,0.536-0.406,0.536-0.406,0.536s0,0,0.361-0.7c0.361-0.702,1.085-2.104,1.64-3.074
	c0.553-0.97,0.939-1.511,1.13-1.781c0.194-0.27,0.194-0.27,0.194-0.27s0,0-0.29,0.181c-0.286,0.181-0.862,0.542-1.301,0.911
	c-0.436,0.371-0.736,0.749-0.884,0.939c-0.15,0.188-0.15,0.188-0.156,0.188s-0.017,0.002,0.008-0.322
	c0.028-0.327,0.093-0.976,0.053-1.504c-0.038-0.523-0.185-0.92-0.258-1.122c-0.073-0.199-0.073-0.199-0.073-0.199s0,0-0.183,0.677
	c-0.185,0.678-0.552,2.033-0.846,3.232c-0.294,1.199-0.516,2.244-0.625,2.766c-0.11,0.521-0.11,0.521-0.11,0.521s0,0-0.254-0.864
	c-0.253-0.865-0.76-2.591-1.229-3.874c-0.465-1.282-0.891-2.118-1.104-2.536c-0.213-0.416-0.213-0.416-0.213-0.416s0,0-0.034,0.3
	c-0.033,0.302-0.102,0.907-0.126,1.388c-0.022,0.479,0.002,0.838,0.012,1.016c0.012,0.179,0.012,0.179,0.012,0.179s0,0-0.221-0.188
	c-0.224-0.188-0.666-0.566-1.134-0.86s-0.961-0.501-1.209-0.606C43.5,22.162,43.5,22.162,43.5,22.162s0,0,0.363,0.433
	c0.363,0.432,1.091,1.296,1.71,2.082c0.621,0.787,1.134,1.497,1.443,2.011c0.308,0.513,0.414,0.83,0.466,0.988
	c0.051,0.159,0.051,0.159,0.051,0.159s0,0-0.375-0.36c-0.377-0.359-1.13-1.075-2.234-1.819c-1.101-0.745-2.554-1.514-3.914-1.964
	c-1.359-0.45-2.627-0.584-3.753-0.565c-1.122,0.02-2.108,0.19-2.731,0.351c-0.626,0.16-0.893,0.308-1.024,0.383
	c-0.134,0.073-0.134,0.073-0.134,0.073s0,0,0.408,0.574c0.41,0.572,1.227,1.718,1.739,2.483c0.511,0.763,0.716,1.145,0.817,1.337
	c0.104,0.19,0.104,0.19,0.104,0.19s0,0-0.588,0.566c-0.586,0.564-1.759,1.696-2.532,2.542c-0.771,0.846-1.143,1.41-1.327,1.692
	c-0.187,0.28-0.187,0.28-0.187,0.28s0,0,0.255-0.022C32.313,33.552,32.827,33.507,38.8,33.114L38.8,33.114z M40.094,31.273
	c1.475-0.083,3.66-0.199,4.759-0.266c1.098-0.065,1.108-0.077,1.114-0.083c0.006-0.006,0.006-0.006,0.016-0.146
	c0.007-0.138,0.025-0.414-0.158-0.84s-0.568-1-1.236-1.603c-0.667-0.604-1.621-1.238-2.508-1.601
	c-0.884-0.361-1.706-0.45-2.392-0.408c-0.686,0.045-1.238,0.226-1.526,0.32c-0.288,0.098-0.31,0.112-0.323,0.118
	c-0.01,0.007-0.01,0.007,0.233,0.368c0.246,0.363,0.737,1.085,0.98,1.446c0.248,0.363,0.248,0.363,0.248,0.363s0,0-0.185,0.125
	c-0.183,0.125-0.55,0.376-0.919,0.796c-0.368,0.42-0.739,1.006-0.921,1.3c-0.185,0.294-0.185,0.294-0.185,0.294s0,0,0.381-0.026
	C37.856,31.407,38.619,31.358,40.094,31.273L40.094,31.273z M59.22,30.036c1.477-0.108,2.24-0.157,2.621-0.181
	c0.382-0.026,0.382-0.026,0.382-0.026s0,0-0.22-0.268c-0.223-0.266-0.665-0.802-1.083-1.171c-0.418-0.367-0.815-0.57-1.018-0.669
	c-0.195-0.102-0.195-0.102-0.195-0.102s0,0,0.195-0.392c0.193-0.389,0.592-1.171,0.786-1.56c0.195-0.39,0.195-0.39,0.187-0.396
	c-0.016-0.004-0.04-0.014-0.337-0.073c-0.295-0.059-0.863-0.167-1.554-0.122c-0.686,0.045-1.489,0.239-2.321,0.714
	c-0.832,0.473-1.691,1.224-2.278,1.909c-0.584,0.684-0.893,1.302-1.019,1.749c-0.128,0.446-0.072,0.718-0.046,0.854
	c0.026,0.136,0.026,0.136,0.032,0.142c0.006,0.006,0.02,0.016,1.116-0.061C55.566,30.31,57.751,30.144,59.22,30.036L59.22,30.036z
	 M28.305,44.301c0.795,1.091,1.889,2.163,3.154,2.496c1.269,0.335,2.707-0.073,3.944-1.309c1.235-1.238,2.271-3.305,3.199-4.338
	c0.93-1.033,1.753-1.033,2.687-0.999c0.931,0.035,1.97,0.106,2.899,1.193c0.928,1.088,1.743,3.192,2.666,5.135
	c0.923,1.943,1.954,3.725,2.973,4.628c1.02,0.9,2.03,0.922,2.963,0.268c0.934-0.655,1.794-1.987,2.522-3.735
	c0.73-1.751,1.335-3.919,2.35-5.025c1.021-1.106,2.458-1.148,3.644-0.193c1.176,0.954,2.102,2.91,3.035,4.198
	c0.933,1.289,1.878,1.909,2.855,1.739c0.975-0.173,1.985-1.138,2.972-2.812c0.989-1.676,1.955-4.058,2.889-5.494
	c0.938-1.435,1.843-1.922,2.723-1.932c0.881-0.012,1.736,0.455,2.175,0.708c0.438,0.253,0.458,0.296,0.471,0.318
	s0.013,0.022,0.032-0.878c0.021-0.903,0.061-2.706,0.086-3.607c0.02-0.903,0.02-0.903,0.02-0.923c0-0.022,0-0.065-9.223,0.61
	c-9.22,0.678-27.659,2.074-36.88,2.77c-9.221,0.698-9.221,0.698-9.221,0.698s0,0-0.022,0.623c-0.021,0.623-0.065,1.869-0.096,2.544
	c-0.032,0.678-0.053,0.784-0.064,0.826c-0.01,0.043-0.01,0.022,0.257-0.203c0.268-0.225,0.806-0.655,1.386-0.795
	c0.579-0.138,1.201,0.012,1.759,0.645C27.016,42.089,27.511,43.205,28.305,44.301L28.305,44.301z M21.516,70.512
	c0.74,1.395,1.603,3.514,2.743,5.396c1.141,1.883,2.557,3.537,4.186,3.717c1.631,0.178,3.474-1.117,5.052-2.621
	c1.579-1.502,2.891-3.215,3.966-3.877c1.075-0.66,1.913-0.275,3.05,0.801c1.138,1.07,2.576,2.832,4.386,3.906
	c1.812,1.076,3.993,1.467,5.957,0.947c1.966-0.512,3.712-1.932,5.326-3.438c1.615-1.504,3.096-3.092,4.468-3.744
	c1.376-0.658,2.645-0.379,3.813,1.201c1.169,1.574,2.24,4.453,3.295,7.055c1.047,2.602,2.074,4.926,3.413,6.092
	c1.334,1.16,2.985,1.16,4.224,0.17c1.233-0.99,2.062-2.975,2.881-5.445c0.828-2.477,1.651-5.438,2.35-7.178s1.271-2.254,1.789-2.455
	c0.52-0.203,0.995-0.098,1.412,0.137c0.423,0.236,0.787,0.602,0.966,0.789c0.187,0.178,0.187,0.178,0.171-0.699
	c-0.008-0.881-0.032-2.643-0.04-3.521c-0.01-0.881-0.01-0.881-0.01-0.881s0,0-11.413-0.75c-11.41-0.746-34.23-2.24-45.639-2.99
	c-11.41-0.748-11.41-0.748-11.41-0.748s0,0,0.02,1.027c0.022,1.027,0.063,3.08,0.083,4.105c0.022,1.031,0.022,1.031,0.022,1.031
	s0,0,0.268-0.215c0.268-0.215,0.805-0.646,1.298-0.775c0.495-0.129,0.943,0.045,1.479,0.471
	C20.157,68.441,20.775,69.115,21.516,70.512L21.516,70.512z M31.587,85.041c-0.554-0.701-1.455-1.488-2.577-1.461
	c-1.122,0.029-2.463,0.865-3.001,2.303c-0.536,1.443-0.268,3.48,0.339,4.746c0.606,1.266,1.55,1.762,2.564,1.598
	c1.014-0.16,2.1-0.973,2.717-1.955c0.617-0.986,0.769-2.133,0.741-3.018C32.344,86.369,32.139,85.744,31.587,85.041L31.587,85.041z
	 M69.149,52.123c-0.419-0.406-1.205-0.996-1.984-0.963c-0.788,0.033-1.566,0.686-1.725,1.854c-0.158,1.174,0.316,2.857,1.051,3.465
	c0.738,0.605,1.736,0.135,2.309-0.633c0.576-0.77,0.727-1.828,0.775-2.467C69.624,52.738,69.566,52.523,69.149,52.123z"/>
</svg>
